<svg width="747" height="1303" viewBox="0 0 747 1303" fill="none" xmlns="http://www.w3.org/2000/svg">
<path d="M118.17 224.52L186.9 295.38L255.63 224.52H118.17Z" fill="#00FFF8"/>
<path d="M105.92 211.88H179.85L224.96 166.76L186.9 127.53L105.5 211.45L105.92 211.89V211.88Z" fill="#00FFF8"/>
<path d="M197.72 211.88H267.89L268.3 211.45L233.76 175.84L197.72 211.88Z" fill="#00FFF8"/>
<path d="M312.45 224.52L381.18 295.38L449.91 224.52H312.45Z" fill="#00FFF8"/>
<path d="M300.2 211.88H374.12L419.24 166.76L381.18 127.53L299.78 211.45L300.2 211.89V211.88Z" fill="#00FFF8"/>
<path d="M392 211.88H462.17L462.58 211.45L428.04 175.84L392 211.88Z" fill="#00FFF8"/>
<path d="M500.84 224.52L569.57 295.38L638.3 224.52H500.84Z" fill="#00FFF8"/>
<path d="M488.59 211.88H562.51L607.63 166.76L569.57 127.53L488.17 211.45L488.59 211.89V211.88Z" fill="#00FFF8"/>
<path d="M580.39 211.88H650.56L650.97 211.45L616.43 175.84L580.39 211.88Z" fill="#00FFF8"/>
<path d="M210.4 96.99L279.13 167.85L347.86 96.99H210.4Z" fill="#00FFF8"/>
<path d="M198.15 84.3501H272.07L317.18 39.2301L279.13 0L197.72 83.92L198.15 84.3601V84.3501Z" fill="#00FFF8"/>
<path d="M289.95 84.3501H360.12L360.53 83.92L325.99 48.3101L289.95 84.3501Z" fill="#00FFF8"/>
<path d="M404.68 96.99L473.41 167.85L542.14 96.99H404.68Z" fill="#00FFF8"/>
<path d="M392.43 84.3501H466.35L511.46 39.2301L473.41 0L392 83.92L392.43 84.3601V84.3501Z" fill="#00FFF8"/>
<path d="M484.23 84.3501H554.4L554.81 83.92L520.27 48.3101L484.23 84.3501Z" fill="#00FFF8"/>
<path d="M593.07 96.99L661.8 167.85L730.53 96.99H593.07Z" fill="#00FFF8"/>
<path d="M580.82 84.3501H654.74L699.85 39.2301L661.8 0L580.39 83.92L580.82 84.3601V84.3501Z" fill="#00FFF8"/>
<path d="M672.62 84.3501H742.79L743.2 83.92L708.66 48.3101L672.62 84.3501Z" fill="#00FFF8"/>
<path d="M118.17 484.47L186.9 555.33L255.63 484.47H118.17Z" fill="#00FFF8"/>
<path d="M105.92 471.83H179.85L224.96 426.72L186.9 387.48L105.5 471.4L105.92 471.84V471.83Z" fill="#00FFF8"/>
<path d="M197.72 471.83H267.89L268.3 471.4L233.76 435.79L197.72 471.83Z" fill="#00FFF8"/>
<path d="M312.45 484.47L381.18 555.33L449.91 484.47H312.45Z" fill="#00FFF8"/>
<path d="M300.2 471.83H374.12L419.24 426.72L381.18 387.48L299.78 471.4L300.2 471.84V471.83Z" fill="#00FFF8"/>
<path d="M392 471.83H462.17L462.58 471.4L428.04 435.79L392 471.83Z" fill="#00FFF8"/>
<path d="M500.84 484.47L569.57 555.33L638.3 484.47H500.84Z" fill="#00FFF8"/>
<path d="M488.59 471.83H562.51L607.63 426.72L569.57 387.48L488.17 471.4L488.59 471.84V471.83Z" fill="#00FFF8"/>
<path d="M580.39 471.83H650.56L650.97 471.4L616.43 435.79L580.39 471.83Z" fill="#00FFF8"/>
<path d="M210.4 356.94L279.13 427.8L347.86 356.94H210.4Z" fill="#00FFF8"/>
<path d="M198.15 344.3H272.07L317.18 299.18L279.13 259.95L197.72 343.87L198.15 344.31V344.3Z" fill="#00FFF8"/>
<path d="M289.95 344.3H360.12L360.53 343.87L325.99 308.26L289.95 344.3Z" fill="#00FFF8"/>
<path d="M404.68 356.94L473.41 427.8L542.14 356.94H404.68Z" fill="#00FFF8"/>
<path d="M392.43 344.3H466.35L511.46 299.18L473.41 259.95L392 343.87L392.43 344.31V344.3Z" fill="#00FFF8"/>
<path d="M484.23 344.3H554.4L554.81 343.87L520.27 308.26L484.23 344.3Z" fill="#00FFF8"/>
<path d="M593.07 356.94L661.8 427.8L730.53 356.94H593.07Z" fill="#00FFF8"/>
<path d="M580.82 344.3H654.74L699.85 299.18L661.8 259.95L580.39 343.87L580.82 344.31V344.3Z" fill="#00FFF8"/>
<path d="M672.62 344.3H742.79L743.2 343.87L708.66 308.26L672.62 344.3Z" fill="#00FFF8"/>
<path d="M118.17 730.74L186.9 801.6L255.63 730.74H118.17Z" fill="#00FFF8"/>
<path d="M105.92 718.1H179.85L224.96 672.99L186.9 633.75L105.5 717.68L105.92 718.11V718.1Z" fill="#00FFF8"/>
<path d="M197.72 718.1H267.89L268.3 717.68L233.76 682.06L197.72 718.1Z" fill="#00FFF8"/>
<path d="M312.45 730.74L381.18 801.6L449.91 730.74H312.45Z" fill="#00FFF8"/>
<path d="M300.2 718.1H374.12L419.24 672.99L381.18 633.75L299.78 717.68L300.2 718.11V718.1Z" fill="#00FFF8"/>
<path d="M392 718.1H462.17L462.58 717.68L428.04 682.06L392 718.1Z" fill="#00FFF8"/>
<path d="M500.84 730.74L569.57 801.6L638.3 730.74H500.84Z" fill="#00FFF8"/>
<path d="M488.59 718.1H562.51L607.63 672.99L569.57 633.75L488.17 717.68L488.59 718.11V718.1Z" fill="#00FFF8"/>
<path d="M580.39 718.1H650.56L650.97 717.68L616.43 682.06L580.39 718.1Z" fill="#00FFF8"/>
<path d="M210.4 603.21L279.13 674.07L347.86 603.21H210.4Z" fill="#00FFF8"/>
<path d="M198.15 590.57H272.07L317.18 545.46L279.13 506.22L197.72 590.15L198.15 590.58V590.57Z" fill="#00FFF8"/>
<path d="M289.95 590.57H360.12L360.53 590.15L325.99 554.53L289.95 590.57Z" fill="#00FFF8"/>
<path d="M404.68 603.21L473.41 674.07L542.14 603.21H404.68Z" fill="#00FFF8"/>
<path d="M392.43 590.57H466.35L511.46 545.46L473.41 506.22L392 590.15L392.43 590.58V590.57Z" fill="#00FFF8"/>
<path d="M484.23 590.57H554.4L554.81 590.15L520.27 554.53L484.23 590.57Z" fill="#00FFF8"/>
<path d="M593.07 603.21L661.8 674.07L730.53 603.21H593.07Z" fill="#00FFF8"/>
<path d="M580.82 590.57H654.74L699.85 545.46L661.8 506.22L580.39 590.15L580.82 590.58V590.57Z" fill="#00FFF8"/>
<path d="M672.62 590.57H742.79L743.2 590.15L708.66 554.53L672.62 590.57Z" fill="#00FFF8"/>
<path d="M121.12 986.69L189.85 1057.55L258.57 986.69H121.12Z" fill="#00FFF8"/>
<path d="M108.87 974.05H182.79L227.9 928.94L189.85 889.7L108.44 973.63L108.87 974.06V974.05Z" fill="#00FFF8"/>
<path d="M200.67 974.05H270.84L271.25 973.63L236.71 938.01L200.67 974.05Z" fill="#00FFF8"/>
<path d="M315.4 986.69L384.12 1057.55L452.85 986.69H315.4Z" fill="#00FFF8"/>
<path d="M303.15 974.05H377.07L422.18 928.94L384.12 889.7L302.72 973.63L303.15 974.06V974.05Z" fill="#00FFF8"/>
<path d="M394.95 974.05H465.12L465.53 973.63L430.99 938.01L394.95 974.05Z" fill="#00FFF8"/>
<path d="M503.79 986.69L572.52 1057.55L641.24 986.69H503.79Z" fill="#00FFF8"/>
<path d="M491.54 974.05H565.46L610.57 928.94L572.52 889.7L491.11 973.63L491.54 974.06V974.05Z" fill="#00FFF8"/>
<path d="M583.34 974.05H653.51L653.92 973.63L619.38 938.01L583.34 974.05Z" fill="#00FFF8"/>
<path d="M213.34 859.16L282.07 930.02L350.8 859.16H213.34Z" fill="#00FFF8"/>
<path d="M201.09 846.52H275.02L320.13 801.41L282.07 762.17L200.67 846.1L201.09 846.53V846.52Z" fill="#00FFF8"/>
<path d="M292.89 846.52H363.06L363.47 846.1L328.93 810.48L292.89 846.52Z" fill="#00FFF8"/>
<path d="M407.62 859.16L476.35 930.02L545.08 859.16H407.62Z" fill="#00FFF8"/>
<path d="M395.37 846.52H469.29L514.41 801.41L476.35 762.17L394.95 846.1L395.37 846.53V846.52Z" fill="#00FFF8"/>
<path d="M487.17 846.52H557.34L557.75 846.1L523.21 810.48L487.17 846.52Z" fill="#00FFF8"/>
<path d="M596.01 859.16L664.74 930.02L733.47 859.16H596.01Z" fill="#00FFF8"/>
<path d="M583.76 846.52H657.68L702.8 801.41L664.74 762.17L583.34 846.1L583.76 846.53V846.52Z" fill="#00FFF8"/>
<path d="M675.56 846.52H745.73L746.14 846.1L711.6 810.48L675.56 846.52Z" fill="#00FFF8"/>
<path d="M121.12 1232.07L189.85 1302.93L258.57 1232.07H121.12Z" fill="#00FFF8"/>
<path d="M108.87 1219.43H182.79L227.9 1174.32L189.85 1135.08L108.44 1219.01L108.87 1219.44V1219.43Z" fill="#00FFF8"/>
<path d="M200.67 1219.43H270.84L271.25 1219.01L236.71 1183.39L200.67 1219.43Z" fill="#00FFF8"/>
<path d="M315.4 1232.07L384.12 1302.93L452.85 1232.07H315.4Z" fill="#00FFF8"/>
<path d="M303.15 1219.43H377.07L422.18 1174.32L384.12 1135.08L302.72 1219.01L303.15 1219.44V1219.43Z" fill="#00FFF8"/>
<path d="M394.95 1219.43H465.12L465.53 1219.01L430.99 1183.39L394.95 1219.43Z" fill="#00FFF8"/>
<path d="M503.79 1232.07L572.52 1302.93L641.24 1232.07H503.79Z" fill="#00FFF8"/>
<path d="M491.54 1219.43H565.46L610.57 1174.32L572.52 1135.08L491.11 1219.01L491.54 1219.44V1219.43Z" fill="#00FFF8"/>
<path d="M583.34 1219.43H653.51L653.92 1219.01L619.38 1183.39L583.34 1219.43Z" fill="#00FFF8"/>
<path d="M213.34 1104.54L282.07 1175.4L350.8 1104.54H213.34Z" fill="#00FFF8"/>
<path d="M201.09 1091.9H275.02L320.13 1046.79L282.07 1007.55L200.67 1091.48L201.09 1091.91V1091.9Z" fill="#00FFF8"/>
<path d="M292.89 1091.9H363.06L363.47 1091.48L328.93 1055.86L292.89 1091.9Z" fill="#00FFF8"/>
<path d="M12.6797 96.99L81.3997 167.85L150.13 96.99H12.6797Z" fill="#00FFF8"/>
<path d="M0.429932 84.3501H74.3501L119.46 39.2301L81.3999 0L0 83.92L0.429932 84.3601V84.3501Z" fill="#00FFF8"/>
<path d="M92.23 84.3501H162.4L162.81 83.92L128.26 48.3101L92.23 84.3501Z" fill="#00FFF8"/>
<path d="M12.6797 356.94L81.3997 427.8L150.13 356.94H12.6797Z" fill="#00FFF8"/>
<path d="M0.429932 344.3H74.3501L119.46 299.18L81.3999 259.95L0 343.87L0.429932 344.31V344.3Z" fill="#00FFF8"/>
<path d="M92.23 344.3H162.4L162.81 343.87L128.26 308.26L92.23 344.3Z" fill="#00FFF8"/>
<path d="M12.6797 603.21L81.3997 674.07L150.13 603.21H12.6797Z" fill="#00FFF8"/>
<path d="M0.429932 590.57H74.3501L119.46 545.46L81.3999 506.22L0 590.15L0.429932 590.58V590.57Z" fill="#00FFF8"/>
<path d="M92.23 590.57H162.4L162.81 590.15L128.26 554.53L92.23 590.57Z" fill="#00FFF8"/>
<path d="M15.6201 859.16L84.3501 930.02L153.08 859.16H15.6201Z" fill="#00FFF8"/>
<path d="M3.37036 846.52H77.2903L122.41 801.41L84.3503 762.17L2.9502 846.1L3.37036 846.53V846.52Z" fill="#00FFF8"/>
<path d="M95.1699 846.52H165.34L165.75 846.1L131.21 810.48L95.1699 846.52Z" fill="#00FFF8"/>
<path d="M15.6201 1104.54L84.3501 1175.4L153.08 1104.54H15.6201Z" fill="#00FFF8"/>
<path d="M3.37036 1091.9H77.2903L122.41 1046.79L84.3503 1007.55L2.9502 1091.48L3.37036 1091.91V1091.9Z" fill="#00FFF8"/>
<path d="M95.1699 1091.9H165.34L165.75 1091.48L131.21 1055.86L95.1699 1091.9Z" fill="#00FFF8"/>
<path d="M407.62 1104.54L476.35 1175.4L545.08 1104.54H407.62Z" fill="#00FFF8"/>
<path d="M395.37 1091.9H469.29L514.41 1046.79L476.35 1007.55L394.95 1091.48L395.37 1091.91V1091.9Z" fill="#00FFF8"/>
<path d="M487.17 1091.9H557.34L557.75 1091.48L523.21 1055.86L487.17 1091.9Z" fill="#00FFF8"/>
<path d="M596.01 1104.54L664.74 1175.4L733.47 1104.54H596.01Z" fill="#00FFF8"/>
<path d="M583.76 1091.9H657.68L702.8 1046.79L664.74 1007.55L583.34 1091.48L583.76 1091.91V1091.9Z" fill="#00FFF8"/>
<path d="M675.56 1091.9H745.73L746.14 1091.48L711.6 1055.86L675.56 1091.9Z" fill="#00FFF8"/>
</svg>
