<svg width="197" height="64" viewBox="0 0 197 64" fill="none" xmlns="http://www.w3.org/2000/svg">
<path d="M117.866 52.2034H116.446V12.4491H117.866V52.2034Z" fill="white"/>
<path fill-rule="evenodd" clip-rule="evenodd" d="M51.4761 34.0868H57.5528L54.3725 28.9188L48.4661 38.2326H45.7969L52.9527 27.0446C53.2366 26.5903 53.7478 26.3063 54.3725 26.3063C54.8836 26.3063 55.3947 26.5903 55.7355 27.0446L62.8913 38.2326H60.1652L58.9158 36.1313H52.8391L51.4761 34.0868ZM89.7538 36.1881L88.3908 38.2326H78.0547C77.7707 38.2326 77.43 38.1191 77.2596 37.8919C77.0324 37.6647 76.9188 37.3997 76.9188 37.0968V26.4767H79.1337V36.1881H89.7538ZM40.7424 34.4276L45.2858 38.2326H41.9918L35.2336 32.3263L41.5943 32.3831C42.6733 32.3831 43.5252 31.5312 43.5252 30.4521C43.5252 29.4299 42.6733 28.5212 41.5943 28.5212H34.0978V38.2326H31.8829V26.4767H41.7647C43.9795 26.4767 45.7401 28.2373 45.7401 30.4521C45.7401 32.667 43.9795 34.4276 41.7647 34.4276H40.7424ZM17.9689 38.2326C14.6749 38.2326 12.0625 35.6202 12.0625 32.3831C12.0625 29.0891 14.6749 26.4767 17.9689 26.4767H24.7839C28.021 26.4767 30.6335 29.0891 30.6335 32.3831C30.6335 35.6202 28.021 38.2326 24.7839 38.2326H17.9689ZM24.6703 36.1881C26.7716 36.1881 28.4754 34.4844 28.4754 32.3831C28.4754 30.2818 26.7716 28.5212 24.6703 28.5212H18.0824C15.9811 28.5212 14.2774 30.2818 14.2774 32.3831C14.2774 34.4844 15.9811 36.1881 18.0824 36.1881H24.6703ZM67.6618 38.2326C64.4246 38.2326 61.8122 35.6202 61.8122 32.3831C61.8122 29.0891 64.4246 26.4767 67.6618 26.4767H75.8398L74.4768 28.5212H67.8321C65.7308 28.5212 64.0271 30.2818 64.0271 32.3831C64.0271 34.4844 65.7308 36.1881 67.8321 36.1881H76.0102L74.6472 38.2326H67.6618ZM103.554 36.1881L102.191 38.2326H95.2058C91.9687 38.2326 89.3563 35.6202 89.3563 32.3831C89.3563 29.0891 91.9687 26.4767 95.2058 26.4767H103.384L102.021 28.5212H95.3762C93.6157 28.5212 92.1391 29.7138 91.7415 31.304H102.702L101.396 33.4053H91.7415C92.1959 34.9955 93.6157 36.1881 95.3762 36.1881H103.554Z" fill="#C74634"/>
<path fill-rule="evenodd" clip-rule="evenodd" d="M132.121 38.1191V26.3632H135.983C138.709 26.3632 140.072 27.6126 140.072 30.1114C140.072 32.6103 138.709 33.8597 135.983 33.8597H133.654V38.1191H132.121ZM135.642 27.5558H133.598V32.6671H135.642C136.664 32.6671 137.403 32.4588 137.857 32.0423C138.311 31.6259 138.539 30.9822 138.539 30.1114C138.539 29.2406 138.311 28.597 137.857 28.1805C137.403 27.764 136.664 27.5558 135.642 27.5558Z" fill="white"/>
<path fill-rule="evenodd" clip-rule="evenodd" d="M146.943 38.1191L146.659 36.7561C145.978 37.7783 145.05 38.2894 143.876 38.2894C143.005 38.2894 142.324 38.0623 141.832 37.6079C141.302 37.1157 141.037 36.4721 141.037 35.677C141.037 34.8062 141.34 34.1247 141.945 33.6325C142.551 33.1403 143.403 32.8942 144.501 32.8942H146.489V32.3263C146.489 31.7205 146.356 31.304 146.091 31.0769C145.826 30.8118 145.372 30.6793 144.728 30.6793C144.312 30.6793 143.876 30.7361 143.422 30.8497C142.93 30.9254 142.4 31.0579 141.832 31.2472V30.1114C142.248 29.9221 142.721 29.7707 143.252 29.6571C143.782 29.5435 144.274 29.4867 144.728 29.4867C146.848 29.4867 147.908 30.4332 147.908 32.3263V38.1191H146.943ZM144.047 37.1536C144.577 37.1536 145.05 37.0022 145.466 36.6993C145.883 36.4342 146.224 36.0556 146.489 35.5634V33.9165H144.671C143.952 33.9165 143.422 34.049 143.081 34.314C142.703 34.579 142.513 34.9955 142.513 35.5634C142.513 36.0556 142.665 36.4342 142.968 36.6993C143.233 37.0022 143.592 37.1536 144.047 37.1536Z" fill="white"/>
<path d="M150.294 38.119V29.657H151.26L151.544 31.2472C152.112 30.1871 152.907 29.657 153.929 29.657C154.118 29.657 154.308 29.676 154.497 29.7138V31.0201H154.099C153.494 31.0201 152.983 31.1904 152.566 31.5312C152.15 31.8719 151.866 32.3641 151.714 33.0078V38.119H150.294Z" fill="white"/>
<path d="M156.995 35.5634V30.9065H155.575V30.1114L156.995 29.6571L157.62 27.3286H158.472V29.6571H160.289V30.9065H158.472V35.5634C158.472 36.4721 158.869 36.9264 159.664 36.9264C159.816 36.9264 159.948 36.9264 160.062 36.9264C160.175 36.8886 160.289 36.8697 160.403 36.8697V38.1191C160.251 38.1569 160.1 38.1759 159.948 38.1759C159.797 38.2137 159.626 38.2327 159.437 38.2327C158.604 38.2327 157.998 38.0055 157.62 37.5512C157.203 37.1347 156.995 36.4721 156.995 35.5634Z" fill="white"/>
<path d="M162.22 38.1191V29.6571H163.186L163.47 31.1337C163.81 30.6036 164.246 30.2061 164.776 29.941C165.306 29.6381 165.893 29.4867 166.536 29.4867C167.521 29.4867 168.259 29.7896 168.751 30.3954C169.281 30.9633 169.546 31.7962 169.546 32.8942V38.1191H168.07V32.951C168.07 31.4744 167.445 30.7361 166.196 30.7361C165.628 30.7361 165.117 30.9065 164.662 31.2472C164.246 31.588 163.924 32.0423 163.697 32.6102V38.1191H162.22Z" fill="white"/>
<path fill-rule="evenodd" clip-rule="evenodd" d="M178.292 37.7215C177.989 37.9108 177.573 38.0623 177.043 38.1759C176.551 38.2516 176.002 38.2894 175.396 38.2894C174.071 38.2894 173.068 37.9108 172.386 37.1536C171.705 36.3964 171.364 35.2795 171.364 33.8029C171.364 32.402 171.686 31.3419 172.329 30.6225C172.973 29.8653 173.919 29.4867 175.169 29.4867C177.516 29.4867 178.69 30.7929 178.69 33.4053V34.3708H172.84C172.878 35.3173 173.124 35.9988 173.579 36.4153C174.033 36.8696 174.696 37.0968 175.566 37.0968C176.059 37.0968 176.513 37.04 176.929 36.9264C177.384 36.8507 177.838 36.6993 178.292 36.4721V37.7215ZM175.169 30.7361C174.449 30.7361 173.882 30.9444 173.465 31.3608C173.086 31.7773 172.878 32.402 172.84 33.235H177.27C177.27 32.3263 177.1 31.6826 176.759 31.304C176.456 30.9254 175.926 30.7361 175.169 30.7361Z" fill="white"/>
<path d="M180.507 38.119V29.657H181.53L181.814 31.2472C182.344 30.1871 183.12 29.657 184.142 29.657C184.369 29.657 184.558 29.676 184.71 29.7138V31.0201H184.369C183.763 31.0201 183.252 31.1904 182.836 31.5312C182.419 31.8719 182.135 32.3641 181.984 33.0078V38.119H180.507Z" fill="white"/>
</svg>
